<svg xmlns="http://www.w3.org/2000/svg" width="58.042" height="59.977" viewBox="0 0 58.042 59.977"><g transform="translate(-1 -1)"><path d="M28.674,45H19v5.8h9.674Zm-1.935,3.869h-5.8V46.935h5.8Z" transform="translate(-0.587 -1.436)"/><path d="M56.14,31.956H44.531a2.906,2.906,0,0,0-2.9,2.9v1.279a18.224,18.224,0,0,0-13.908-7.073l-.019-.039a6.779,6.779,0,0,0,6.188-6.743v-.967a3.873,3.873,0,0,0,3.869-3.869,3.831,3.831,0,0,0-.925-2.48,10.674,10.674,0,0,0,.925-4.291V9.439a5.378,5.378,0,0,0-4.311-5.258A3.419,3.419,0,0,1,31.7,3.244l-.674-.674A5.326,5.326,0,0,0,27.234,1h-8.5A9.958,9.958,0,0,0,9.61,15.031a3.829,3.829,0,0,0-.871,2.415,3.873,3.873,0,0,0,3.869,3.869h0l0,.967A6.777,6.777,0,0,0,18.8,29.024l-.019.04A18.4,18.4,0,0,0,1,47.433V48.4a8.714,8.714,0,0,0,5.8,8.2v4.377H48.4a2.906,2.906,0,0,0,2.9-2.9v-.967H56.14a2.906,2.906,0,0,0,2.9-2.9V52.27a2.883,2.883,0,0,0-.755-1.935,2.879,2.879,0,0,0,.755-1.935V46.466a2.883,2.883,0,0,0-.755-1.935,2.879,2.879,0,0,0,.755-1.935V40.662a2.883,2.883,0,0,0-.755-1.935,2.879,2.879,0,0,0,.755-1.935V34.858A2.906,2.906,0,0,0,56.14,31.956Zm-12.576,2.9a.969.969,0,0,1,.967-.967H45.5v1.935h1.935V33.89h1.935v1.935H51.3V33.89h1.935v1.935h1.935V33.89h.967a.969.969,0,0,1,.967.967v1.935a.969.969,0,0,1-.967.967H44.531a.969.969,0,0,1-.967-.967Zm13.543,5.8V42.6a.969.969,0,0,1-.967.967H44.531a.969.969,0,0,1-.967-.967V40.662a.969.969,0,0,1,.967-.967H45.5v1.935h1.935V39.695h1.935v1.935H51.3V39.695h1.935v1.935h1.935V39.695h.967A.969.969,0,0,1,57.107,40.662Zm0,5.8V48.4a.969.969,0,0,1-.967.967H51.125A2.9,2.9,0,0,0,48.4,47.433h-.967V45.5h1.935v1.935H51.3V45.5h1.935v1.935h1.935V45.5h.967A.969.969,0,0,1,57.107,46.466ZM36.792,53.238a.969.969,0,0,1-.967-.967V50.336a.969.969,0,0,1,.967-.967h.967V51.3h1.935V49.368h1.935V51.3h1.935V49.368H45.5V51.3h1.935V49.368H48.4a.969.969,0,0,1,.967.967V52.27a.969.969,0,0,1-.967.967Zm6.772-6.772a.969.969,0,0,1,.967-.967H45.5v1.935H43.564Zm-1.825-6.551a2.884,2.884,0,0,0-.109.747V42.6a2.883,2.883,0,0,0,.755,1.935,2.879,2.879,0,0,0-.755,1.935v.967H39.695V40.662H37.76v6.772h-.967a2.906,2.906,0,0,0-2.9,2.9V52.27a2.883,2.883,0,0,0,.755,1.935,2.879,2.879,0,0,0-.755,1.935v1.935a2.869,2.869,0,0,0,.178.967H31.956V42.6a2.906,2.906,0,0,0-2.9-2.9H28.26l1.417-8.505A16.307,16.307,0,0,1,41.739,39.915ZM12.608,50.736l1.084-1.084a.963.963,0,0,1,.685-.283h.165a.969.969,0,0,1,.967.967V51.3h.967a1.935,1.935,0,0,1,0,3.869H12.608Zm7.739,2.5a3.875,3.875,0,0,0-3.038-3.779,2.9,2.9,0,0,0-.832-1.273V42.6a.969.969,0,0,1,.967-.967H29.054a.969.969,0,0,1,.967.967V59.042H16.478V57.107A3.873,3.873,0,0,0,20.347,53.238Zm5.206-24.184.424.846-2.728,3.409L20.522,29.9l.423-.846Zm-2.3,7.548,2.061,3.093H21.187Zm1.2-1.692L27.572,31l.176.006-1.18,7.08Zm-5.514-3.9,3.119,3.9-2.12,3.181L18.753,31.02c.061,0,.12-.008.18-.01Zm5.284-17.435H22.282a2.869,2.869,0,0,0-.178-.967H24.4A2.846,2.846,0,0,0,24.217,13.576Zm-3.869,0V15.51a.969.969,0,0,1-.967.967H15.51a.969.969,0,0,1-.967-.967V12.239l.029.015a3.377,3.377,0,0,0,1.5.355H19.38A.969.969,0,0,1,20.347,13.576Zm5.8,0a.969.969,0,0,1,.967-.967h3.413a1.426,1.426,0,0,1,1.424,1.424V15.51a.969.969,0,0,1-.967.967H27.119a.969.969,0,0,1-.967-.967Zm7.739,5.8V15.51a1.935,1.935,0,0,1,0,3.869ZM18.735,2.935h8.5a3.407,3.407,0,0,1,2.423,1l.674.674A5.345,5.345,0,0,0,33.07,6.08a3.435,3.435,0,0,1,2.755,3.36v1.234a8.731,8.731,0,0,1-.6,3.155,3.823,3.823,0,0,0-1.338-.252h-.046a3.353,3.353,0,0,0-3.312-2.9H16.074a1.426,1.426,0,0,1-.637-.151l-.108-.054a1.424,1.424,0,0,1,.637-2.7h1.478V5.837H15.967a3.364,3.364,0,0,0-3.328,2.9l-.012,4.837h-.019a3.843,3.843,0,0,0-1.41.275A8.057,8.057,0,0,1,18.735,2.935ZM12.608,19.38a1.935,1.935,0,1,1,0-3.869c0,.051.013.1.015.151l-.009,3.719Zm1.935,2.9V18.235a2.869,2.869,0,0,0,.967.178H19.38a2.906,2.906,0,0,0,2.9-2.9h1.935a2.906,2.906,0,0,0,2.9,2.9h3.869a2.869,2.869,0,0,0,.967-.178v4.047a4.842,4.842,0,0,1-4.837,4.837H19.38A4.842,4.842,0,0,1,14.543,22.282ZM2.935,48.4v-.967A16.456,16.456,0,0,1,16.823,31.208l1.415,8.487h-.793a2.906,2.906,0,0,0-2.9,2.9v4.837h-.165a2.885,2.885,0,0,0-2.053.85l-1.06,1.06a2.907,2.907,0,0,1-2.526-2.878v-5.8H6.8v5.8a4.846,4.846,0,0,0,3.869,4.739v3.967H9.706A6.779,6.779,0,0,1,2.935,48.4Zm5.8,8.649a8.643,8.643,0,0,0,.967.057h4.837v1.935h-5.8Zm40.629,1.024a.969.969,0,0,1-.967.967H36.792a.969.969,0,0,1-.967-.967V56.14a.969.969,0,0,1,.967-.967h.967v1.935h1.935V55.172h1.935v1.935h1.935V55.172H45.5v1.935h1.935V55.172H48.4a.969.969,0,0,1,.967.967Zm7.739-3.869a.969.969,0,0,1-.967.967H51.125a2.875,2.875,0,0,0-.577-.967A2.879,2.879,0,0,0,51.3,52.27V51.3h1.935v1.935h1.935V51.3h.967a.969.969,0,0,1,.967.967Z" transform="translate(0 0)"/></g></svg>