<svg xmlns="http://www.w3.org/2000/svg" width="512" height="379" viewBox="0 0 512 379">
  <g id="drag_drop" transform="translate(0 -66.5)">
    <path id="Path_77" data-name="Path 77" d="M72.8,224.2a39.1,39.1,0,1,0,39.1-39.3,39.264,39.264,0,0,0-39.1,39.3Zm39.1-24.3a24.3,24.3,0,1,1-24.1,24.3A24.22,24.22,0,0,1,111.9,199.9Z" fill="#00e17b"/>
    <path id="Path_78" data-name="Path 78" d="M487.9,95.9a7.37,7.37,0,0,0-10.6-.4,7.462,7.462,0,0,0-.5,10.6,76.064,76.064,0,0,1,20.1,51.7c0,42.1-34,76.3-75.9,76.3s-75.9-34.2-75.9-76.3,34-76.3,75.9-76.3a74.484,74.484,0,0,1,29.9,6.2,7.524,7.524,0,0,0,6-13.8,90.726,90.726,0,0,0-117.6,43.9H13.5A13.507,13.507,0,0,0,0,131.3V432a13.507,13.507,0,0,0,13.5,13.5H470.4A13.572,13.572,0,0,0,483.9,432V327a7.5,7.5,0,0,0-15,0V430.5H15V132.8H333.6a91.312,91.312,0,0,0-2.9,14.9H122a7.5,7.5,0,0,0,0,15H330.3c2.6,48,42.3,86.3,90.8,86.3a88.365,88.365,0,0,0,17.9-1.8v107l-44-62.8a11.462,11.462,0,0,0-19.2,0l-43,61.4L252.1,237.7a11.462,11.462,0,0,0-19.2,0L152,353.2l-43.2-61.7a11.462,11.462,0,0,0-19.2,0l-44.8,64V162.8H87a7.5,7.5,0,0,0,0-15H43.3a13.572,13.572,0,0,0-13.5,13.5V402a13.507,13.507,0,0,0,13.5,13.5H440.5A13.572,13.572,0,0,0,454,402V242.9a88.921,88.921,0,0,0,14.8-7.4V291a7.5,7.5,0,0,0,15,0V223.8a91.434,91.434,0,0,0,4.1-127.9ZM44.8,400.5v-19l54.4-77.7,67.7,96.6H44.8Zm140.4,0-24-34.3,81.3-116L347.8,400.5Zm253.8,0H366.2l-24.3-34.6,43.4-62,53.6,76.5.1,20.1Z" fill="#00e17b"/>
    <path id="Path_79" data-name="Path 79" d="M421.1,100.3a11.657,11.657,0,0,0-8.6,3.8l-32.3,36.2a11.5,11.5,0,0,0-1.9,12.4,11.655,11.655,0,0,0,10.5,6.8h11.3v46.3a11.566,11.566,0,0,0,11.5,11.5h19a11.566,11.566,0,0,0,11.5-11.5V159.5h11.3a11.534,11.534,0,0,0,8.6-19.2l-32.3-36.2a11.657,11.657,0,0,0-8.6-3.8Zm13.5,44.2a7.555,7.555,0,0,0-7.5,7.5v50.3h-12V152a7.555,7.555,0,0,0-7.5-7.5h-11l24.5-27.4,24.5,27.4Z" fill="#00e17b"/>
  </g>
</svg>
