<svg xmlns="http://www.w3.org/2000/svg" width="395" height="122" viewBox="0 0 395 122"><text transform="translate(86 58)" font-size="60" font-family="HelveticaNeue-CondensedBold, Helvetica Neue" font-weight="700"><tspan x="0" y="0">GRØNJORDS </tspan><tspan x="0" y="51">BUDDY</tspan></text><g transform="translate(0 13.893)"><g transform="translate(55.572 0)"><rect width="23" height="21" transform="translate(0.428 0.107)" fill="#00e17b"/><rect width="23" height="21" transform="translate(0.428 23.107)" fill="#00e17b"/><rect width="23" height="26" transform="translate(0.428 46.107)" fill="#00e17b"/><rect width="23" height="23" transform="translate(0.428 74.107)" fill="#00e17b"/></g><g transform="translate(30.102 23.155)"><rect width="21" height="21" transform="translate(-0.102 -0.048)" fill="#8efe5d"/><rect width="21" height="26" transform="translate(-0.102 22.952)" fill="#8efe5d"/><rect width="21" height="23" transform="translate(-0.102 50.952)" fill="#8efe5d"/></g><g transform="translate(0 0)"><rect width="25" height="21" transform="translate(0 0.107)" fill="#00e17b"/><rect width="25" height="21" transform="translate(0 23.107)" fill="#00e17b"/><rect width="25" height="26" transform="translate(0 46.107)" fill="#00e17b"/><rect width="25" height="23" transform="translate(0 74.107)" fill="#00e17b"/></g></g></svg>