<svg xmlns="http://www.w3.org/2000/svg" width="56.712" height="61.688" viewBox="0 0 56.712 61.688"><g transform="translate(-4 -1)"><path d="M59.427,31.379,49.71,24.652a5.283,5.283,0,0,0,.059-.768A5.955,5.955,0,0,0,40.33,19.04a.994.994,0,0,0,.014,1.626l2.031,1.406a1,1,0,0,1,.253,1.384,1.021,1.021,0,0,1-1.385.253l-1.792-1.241a1,1,0,0,0-1.554.7l-.018.131a4.263,4.263,0,0,0-.05.589,5.976,5.976,0,0,0,5.97,5.97,5.764,5.764,0,0,0,2.263-.466l.491.339-3.994,5.705-6.705-4.694a13.5,13.5,0,0,0-5.794-2.29l-3.367-.48-.576-2.3a7.644,7.644,0,0,0,2.56-2.779h1.193a3.984,3.984,0,0,0,3.98-3.98v-5.97h.995a2.985,2.985,0,1,0,0-5.97H33.021A9.973,9.973,0,0,0,23.9,1h-3.98a9.961,9.961,0,0,0-9.95,9.95v7.96a3.984,3.984,0,0,0,3.98,3.98h1.192a7.634,7.634,0,0,0,2.56,2.779l-.576,2.3-4.188.6a10.5,10.5,0,0,0-4.3,1.644A10.388,10.388,0,0,0,4,38.872v8.891a4.98,4.98,0,0,0,4.975,4.975H9.97v9.95H33.849V41.335l6.506,2.89a6.337,6.337,0,0,0,2.6.553,6.4,6.4,0,0,0,5.262-2.757l5.214-7.53,2.6,1.8a2.986,2.986,0,0,0,3.4-4.91ZM20.4,31.951l-2.466,2.466V30.1Zm1.514,1.3,2.573,2.573H19.336Zm3.98-3.148v4.314l-2.466-2.466Zm3.98-9.2h-.393a11.235,11.235,0,0,0,.393-2.985v-.995a1.99,1.99,0,1,1,0,3.98Zm1.99-5.417a3.939,3.939,0,0,0-1.99-.553V12.94h1.99ZM34.844,8.96a.995.995,0,1,1,0,1.99H22.079a2.991,2.991,0,0,1,2.815-1.99ZM19.919,2.99H23.9a7.981,7.981,0,0,1,6.9,3.98h-5.9a4.983,4.983,0,0,0-4.874,3.98H11.96A7.969,7.969,0,0,1,19.919,2.99Zm-5.97,9.95v1.99a3.939,3.939,0,0,0-1.99.553V12.94Zm0,7.96a1.99,1.99,0,0,1,0-3.98v.995a11.236,11.236,0,0,0,.393,2.985Zm1.99-2.985V12.94h11.94v4.975c0,4.231-2.343,6.965-5.97,6.965S15.94,22.145,15.94,17.914Zm5.97,8.955a8.115,8.115,0,0,0,2.371-.347l.484,1.938L21.909,30.6l-2.855-2.14.484-1.938a8.115,8.115,0,0,0,2.371.347ZM13.22,30.537l2.719-.389v7.665h11.94V30.148l1.9.272a11.4,11.4,0,0,1,2.081.521V54.728h-1.99V39.8H13.95v4.975H11.96V30.831a8.333,8.333,0,0,1,1.261-.294Zm2.719,26.18v-3.98h3.98a3.98,3.98,0,1,0,0-7.96H15.94V41.793h11.94V56.718Zm3.98-9.95a1.99,1.99,0,1,1,0,3.98h-1.99v-3.98ZM5.99,47.763V38.872a8.4,8.4,0,0,1,3.75-7.007c.074-.05.154-.089.23-.135V46.768h5.97v3.98H8.975A2.989,2.989,0,0,1,5.99,47.763Zm7.96,4.975v1.99H11.96v-1.99Zm-1.99,3.98h1.99v1.99h6.965V60.7H11.96ZM22.9,60.7v-1.99h6.965v-1.99h1.99V60.7Zm23.678-19.81a4.409,4.409,0,0,1-5.419,1.519l-7.315-3.251V31.838c.294.168.587.337.864.531L43.048,38.2l2.847-4.066L49.481,36.7Zm4.031-5.823-3.578-2.558,1.152-1.647,3.608,2.5Zm7.934-.667a1.021,1.021,0,0,1-1.385.253L46.719,27.422a1,1,0,0,0-1.042-.057,3.891,3.891,0,0,1-1.878.5,3.989,3.989,0,0,1-3.708-2.532l.019.013a3.063,3.063,0,0,0,4.153-.755,2.989,2.989,0,0,0-.755-4.154l-.614-.425A3.885,3.885,0,0,1,43.8,19.9a3.984,3.984,0,0,1,3.98,3.98,3.887,3.887,0,0,1-.137.97,1,1,0,0,0,.4,1.063l10.255,7.1a1,1,0,0,1,.253,1.383Z"/></g></svg>